# Blender 3.6.7
# www.blender.org
mtllib barrel_sprocket.mtl
o BarrelSprocket
v -0.200000 1.820187 -0.100000
v -0.200000 1.896724 -0.084776
v -0.200000 1.961609 -0.041421
v -0.200000 2.004963 0.023463
v -0.200000 2.020187 0.100000
v -0.200000 2.004963 0.176537
v -0.200000 1.961609 0.241421
v -0.200000 1.896724 0.284776
v -0.200000 1.820187 0.300000
v -0.200000 1.743651 0.284776
v -0.200000 1.678766 0.241421
v -0.200000 1.635411 0.176537
v -0.200000 1.620187 0.100000
v -0.200000 1.635411 0.023463
v -0.200000 1.678766 -0.041421
v -0.200000 1.743651 -0.084776
v -0.200000 1.658456 -0.392388
v -0.200000 1.620187 -0.400000
v -0.200000 1.690898 -0.370711
v -0.200000 1.712575 -0.338268
v -0.200000 1.720187 -0.300000
v -0.200000 1.712575 -0.261732
v -0.200000 1.690898 -0.229289
v -0.200000 1.658456 -0.207612
v -0.200000 1.620187 -0.200000
v -0.200000 1.581919 -0.207612
v -0.200000 1.549477 -0.229289
v -0.200000 1.527799 -0.261732
v -0.200000 1.520187 -0.300000
v -0.200000 1.527799 -0.338268
v -0.200000 1.549477 -0.370711
v -0.200000 1.581919 -0.392388
v -0.290000 1.820187 -0.100000
v -0.290000 1.896724 -0.084776
v -0.290000 1.961609 -0.041421
v -0.290000 2.004963 0.023463
v -0.290000 2.020187 0.100000
v -0.290000 2.004963 0.176537
v -0.290000 1.961609 0.241421
v -0.290000 1.896724 0.284776
v -0.290000 1.820187 0.300000
v -0.290000 1.743651 0.284776
v -0.290000 1.678766 0.241421
v -0.290000 1.635411 0.176537
v -0.290000 1.620187 0.100000
v -0.290000 1.635411 0.023463
v -0.290000 1.678766 -0.041421
v -0.290000 1.743651 -0.084776
v -0.290000 1.658456 -0.392388
v -0.290000 1.620187 -0.400000
v -0.290000 1.690898 -0.370711
v -0.290000 1.712575 -0.338268
v -0.290000 1.720187 -0.300000
v -0.290000 1.712575 -0.261732
v -0.290000 1.690898 -0.229289
v -0.290000 1.658456 -0.207612
v -0.290000 1.620187 -0.200000
v -0.290000 1.581919 -0.207612
v -0.290000 1.549477 -0.229289
v -0.290000 1.527799 -0.261732
v -0.290000 1.520187 -0.300000
v -0.290000 1.527799 -0.338268
v -0.290000 1.549477 -0.370711
v -0.290000 1.581919 -0.392388
v -0.200000 1.896724 -0.084776
v -0.200000 1.820187 -0.100000
v -0.200000 1.961609 -0.041421
v -0.200000 2.004963 0.023463
v -0.200000 2.020187 0.100000
v -0.200000 2.004963 0.176537
v -0.200000 1.961609 0.241421
v -0.200000 1.896724 0.284776
v -0.200000 1.820187 0.300000
v -0.200000 1.743651 0.284776
v -0.200000 1.678766 0.241421
v -0.200000 1.635411 0.176537
v -0.200000 1.620187 0.100000
v -0.200000 1.635411 0.023463
v -0.200000 1.678766 -0.041421
v -0.200000 1.743651 -0.084776
v -0.200000 1.690898 -0.370711
v -0.200000 1.658456 -0.392388
v -0.200000 1.620187 -0.400000
v -0.200000 1.712575 -0.338268
v -0.200000 1.720187 -0.300000
v -0.200000 1.712575 -0.261732
v -0.200000 1.690898 -0.229289
v -0.200000 1.658456 -0.207612
v -0.200000 1.620187 -0.200000
v -0.200000 1.581919 -0.207612
v -0.200000 1.549477 -0.229289
v -0.200000 1.527799 -0.261732
v -0.200000 1.520187 -0.300000
v -0.200000 1.527799 -0.338268
v -0.200000 1.549477 -0.370711
v -0.200000 1.581919 -0.392388
v -0.290000 1.961609 -0.041421
v -0.290000 1.896724 -0.084776
v -0.290000 1.820187 -0.100000
v -0.290000 2.004963 0.023463
v -0.290000 2.020187 0.100000
v -0.290000 2.004963 0.176537
v -0.290000 1.961609 0.241421
v -0.290000 1.896724 0.284776
v -0.290000 1.820187 0.300000
v -0.290000 1.743651 0.284776
v -0.290000 1.678766 0.241421
v -0.290000 1.635411 0.176537
v -0.290000 1.620187 0.100000
v -0.290000 1.635411 0.023463
v -0.290000 1.678766 -0.041421
v -0.290000 1.743651 -0.084776
v -0.290000 1.690898 -0.370711
v -0.290000 1.658456 -0.392388
v -0.290000 1.620187 -0.400000
v -0.290000 1.712575 -0.338268
v -0.290000 1.720187 -0.300000
v -0.290000 1.712575 -0.261732
v -0.290000 1.690898 -0.229289
v -0.290000 1.658456 -0.207612
v -0.290000 1.620187 -0.200000
v -0.290000 1.581919 -0.207612
v -0.290000 1.549477 -0.229289
v -0.290000 1.527799 -0.261732
v -0.290000 1.520187 -0.300000
v -0.290000 1.527799 -0.338268
v -0.290000 1.549477 -0.370711
v -0.290000 1.581919 -0.392388
vn 1.0000 -0.0000 -0.0000
vn -1.0000 -0.0000 -0.0000
vn -0.0000 -0.9808 -0.1951
vn -0.0000 0.1951 0.9808
vn -0.0000 -0.8315 -0.5556
vn -0.0000 -0.1951 0.9808
vn -0.0000 -0.5556 -0.8315
vn -0.0000 -0.5556 0.8315
vn -0.0000 -0.1951 -0.9808
vn -0.0000 -0.8315 0.5556
vn -0.0000 0.1951 -0.9808
vn -0.0000 -0.9808 0.1951
vn -0.0000 0.5556 -0.8315
vn -0.0000 0.8315 -0.5556
vn -0.0000 0.9808 -0.1951
vn -0.0000 0.9808 0.1951
vn -0.0000 0.8315 0.5556
vn -0.0000 0.5556 0.8315
vt 0.000000 0.000000
s 0
f 65/1/1 67/1/1 68/1/1 69/1/1 70/1/1 71/1/1 72/1/1 73/1/1 74/1/1 75/1/1 76/1/1 77/1/1 78/1/1 79/1/1 80/1/1 66/1/1
f 81/1/2 82/1/2 83/1/2 96/1/2 95/1/2 94/1/2 93/1/2 92/1/2 91/1/2 90/1/2 89/1/2 88/1/2 87/1/2 86/1/2 85/1/2 84/1/2
f 98/1/2 99/1/2 112/1/2 111/1/2 110/1/2 109/1/2 108/1/2 107/1/2 106/1/2 105/1/2 104/1/2 103/1/2 102/1/2 101/1/2 100/1/2 97/1/2
f 113/1/1 116/1/1 117/1/1 118/1/1 119/1/1 120/1/1 121/1/1 122/1/1 123/1/1 124/1/1 125/1/1 126/1/1 127/1/1 128/1/1 115/1/1 114/1/1
f 21/1/3 22/1/3 54/1/3 53/1/3
f 9/1/4 8/1/4 40/1/4 41/1/4
f 22/1/5 23/1/5 55/1/5 54/1/5
f 10/1/6 9/1/6 41/1/6 42/1/6
f 23/1/7 24/1/7 56/1/7 55/1/7
f 11/1/8 10/1/8 42/1/8 43/1/8
f 24/1/9 25/1/9 57/1/9 56/1/9
f 12/1/10 11/1/10 43/1/10 44/1/10
f 25/1/11 26/1/11 58/1/11 57/1/11
f 13/1/12 12/1/12 44/1/12 45/1/12
f 26/1/13 27/1/13 59/1/13 58/1/13
f 14/1/3 13/1/3 45/1/3 46/1/3
f 27/1/14 28/1/14 60/1/14 59/1/14
f 15/1/5 14/1/5 46/1/5 47/1/5
f 2/1/11 1/1/11 33/1/11 34/1/11
f 28/1/15 29/1/15 61/1/15 60/1/15
f 16/1/7 15/1/7 47/1/7 48/1/7
f 3/1/13 2/1/13 34/1/13 35/1/13
f 29/1/16 30/1/16 62/1/16 61/1/16
f 1/1/9 16/1/9 48/1/9 33/1/9
f 4/1/14 3/1/14 35/1/14 36/1/14
f 30/1/17 31/1/17 63/1/17 62/1/17
f 17/1/8 19/1/8 51/1/8 49/1/8
f 5/1/15 4/1/15 36/1/15 37/1/15
f 31/1/18 32/1/18 64/1/18 63/1/18
f 18/1/6 17/1/6 49/1/6 50/1/6
f 6/1/16 5/1/16 37/1/16 38/1/16
f 32/1/4 18/1/4 50/1/4 64/1/4
f 19/1/10 20/1/10 52/1/10 51/1/10
f 7/1/17 6/1/17 38/1/17 39/1/17
f 20/1/12 21/1/12 53/1/12 52/1/12
f 8/1/18 7/1/18 39/1/18 40/1/18
