# Blender 3.6.7
# www.blender.org
mtllib scanner_body.mtl
o ScannerBody
v 0.300000 2.456925 -0.138392
v 0.300000 2.424482 -0.160069
v 0.327060 2.456925 -0.133009
v 0.335355 2.424482 -0.153036
v 0.338268 2.386214 -0.160069
v 0.350000 2.456925 -0.117681
v 0.365328 2.424482 -0.133009
v 0.365328 2.456925 -0.094741
v 0.385355 2.424482 -0.103036
v 0.392388 2.386214 -0.105949
v 0.370711 2.456925 -0.067681
v 0.392388 2.424482 -0.067681
v 0.400000 2.386214 -0.067681
v 0.385355 2.424482 -0.032326
v 0.392388 2.386214 -0.029413
v 0.229289 2.386214 0.003030
v 0.214645 2.424482 -0.032326
v 0.207612 2.386214 -0.029413
v 0.370711 2.386214 -0.138392
v 0.229289 2.456925 -0.067681
v 0.207612 2.424482 -0.067681
v 0.234672 2.456925 -0.094741
v 0.214645 2.424482 -0.103036
v 0.250000 2.456925 -0.117681
v 0.234672 2.424482 -0.133009
v 0.272940 2.456925 -0.133009
v 0.264645 2.424482 -0.153036
v 0.261732 2.386214 -0.160069
v 0.200000 2.386214 -0.067681
v 0.207612 2.386214 -0.105949
v 0.229289 2.386214 -0.138392
v 0.300000 2.386214 -0.167681
v 0.282695 2.236214 -0.109460
v 0.272940 2.261214 -0.133009
v 0.277817 2.239563 -0.121234
v 0.274247 2.248714 -0.129854
v 0.268024 2.236214 -0.099657
v 0.250000 2.261214 -0.117681
v 0.259012 2.239563 -0.108669
v 0.252415 2.248714 -0.115266
v 0.258221 2.236214 -0.084986
v 0.234672 2.261214 -0.094741
v 0.246447 2.239563 -0.089863
v 0.237827 2.248714 -0.093434
v 0.254289 2.236214 -0.065219
v 0.229289 2.261214 -0.067681
v 0.241789 2.239563 -0.066450
v 0.232639 2.248714 -0.067351
v 0.345711 2.236214 -0.065219
v 0.370711 2.261214 -0.067681
v 0.358211 2.239563 -0.066450
v 0.367361 2.248714 -0.067351
v 0.341779 2.236214 -0.084986
v 0.365328 2.261214 -0.094741
v 0.353553 2.239563 -0.089863
v 0.362173 2.248714 -0.093434
v 0.331976 2.236214 -0.099657
v 0.350000 2.261214 -0.117681
v 0.340988 2.239563 -0.108669
v 0.347585 2.248714 -0.115266
v 0.317305 2.236214 -0.109460
v 0.327060 2.261214 -0.133009
v 0.322183 2.239563 -0.121234
v 0.325753 2.248714 -0.129854
v 0.300000 2.236214 -0.112902
v 0.300000 2.261214 -0.138392
v 0.300000 2.239563 -0.125647
v 0.300000 2.248714 -0.134977
v 0.370711 2.448205 -0.038392
v 0.370711 2.424482 -0.010408
v 0.229289 2.448205 -0.038392
v 0.229289 2.424482 -0.010408
v 0.370711 2.386214 0.003030
v 0.370711 2.261214 0.003030
v 0.370711 2.261214 0.003030
v 0.229289 2.261214 0.003030
v 0.254289 2.236214 0.019734
v 0.261732 2.236214 0.024707
v 0.241789 2.239563 0.011382
v 0.232639 2.248714 0.005268
v 0.300000 2.236214 0.032319
v 0.338268 2.236214 0.024707
v 0.367361 2.248714 0.005268
v 0.345711 2.236214 0.019734
v 0.358211 2.239563 0.011382
v 0.300000 2.206214 -0.167681
v 0.300000 2.186214 -0.147289
v 0.269535 2.186214 -0.141229
v 0.261732 2.206214 -0.160069
v 0.243708 2.186214 -0.123972
v 0.229289 2.206214 -0.138392
v 0.226452 2.186214 -0.098146
v 0.207612 2.206214 -0.105949
v 0.220392 2.186214 -0.067681
v 0.200000 2.206214 -0.067681
v 0.226452 2.186214 -0.037216
v 0.207612 2.206214 -0.029413
v 0.243709 2.186214 -0.011390
v 0.229289 2.206214 0.003030
v 0.269535 2.186214 0.005867
v 0.261732 2.206214 0.024707
v 0.300000 2.186214 0.011927
v 0.300000 2.206214 0.032319
v 0.330465 2.186214 0.005867
v 0.338268 2.206214 0.024707
v 0.356291 2.186214 -0.011390
v 0.370711 2.206214 0.003030
v 0.373548 2.186214 -0.037216
v 0.392388 2.206214 -0.029413
v 0.379608 2.186214 -0.067681
v 0.400000 2.206214 -0.067681
v 0.373548 2.186214 -0.098146
v 0.392388 2.206214 -0.105949
v 0.370711 2.206214 -0.138392
v 0.356291 2.186214 -0.123972
v 0.330465 2.186214 -0.141229
v 0.338268 2.206214 -0.160069
v 0.300000 2.146214 -0.147289
v 0.269535 2.146214 -0.141229
v 0.243708 2.146214 -0.123972
v 0.226452 2.146214 -0.098146
v 0.220392 2.146214 -0.067681
v 0.226452 2.146214 -0.037216
v 0.243709 2.146214 -0.011390
v 0.269535 2.146214 0.005867
v 0.300000 2.146214 0.011927
v 0.330465 2.146214 0.005867
v 0.356291 2.146214 -0.011390
v 0.373548 2.146214 -0.037216
v 0.379608 2.146214 -0.067681
v 0.373548 2.146214 -0.098146
v 0.356291 2.146214 -0.123972
v 0.330465 2.146214 -0.141229
v 0.300000 2.456925 -0.138392
v 0.327060 2.456925 -0.133009
v 0.350000 2.456925 -0.117681
v 0.272940 2.456925 -0.133009
v 0.370711 2.456925 -0.067681
v 0.370711 2.448205 -0.038392
v 0.370711 2.424482 -0.010408
v 0.370711 2.386214 0.003030
v 0.370711 2.261214 0.003030
v 0.254289 2.236214 0.019734
v 0.261732 2.236214 0.024707
v 0.241789 2.239563 0.011382
v 0.232639 2.248714 0.005268
v 0.300000 2.236214 0.032319
v 0.338268 2.236214 0.024707
v 0.370711 2.261214 0.003030
v 0.367361 2.248714 0.005268
v 0.358211 2.239563 0.011382
v 0.229289 2.448205 -0.038392
v 0.229289 2.424482 -0.010408
v 0.365328 2.456925 -0.094741
v 0.229289 2.456925 -0.067681
v 0.234672 2.456925 -0.094741
v 0.250000 2.456925 -0.117681
v 0.229289 2.386214 0.003030
v 0.229289 2.261214 0.003030
v 0.345711 2.236214 0.019734
v 0.300000 2.186214 -0.147289
v 0.269535 2.186214 -0.141229
v 0.261732 2.206214 -0.160069
v 0.300000 2.206214 -0.167681
v 0.243708 2.186214 -0.123972
v 0.226452 2.186214 -0.098146
v 0.207612 2.206214 -0.105949
v 0.229289 2.206214 -0.138392
v 0.220392 2.186214 -0.067681
v 0.226452 2.186214 -0.037216
v 0.207612 2.206214 -0.029413
v 0.200000 2.206214 -0.067681
v 0.243709 2.186214 -0.011390
v 0.269535 2.186214 0.005867
v 0.261732 2.206214 0.024707
v 0.229289 2.206214 0.003030
v 0.300000 2.186214 0.011927
v 0.330465 2.186214 0.005867
v 0.338268 2.206214 0.024707
v 0.300000 2.206214 0.032319
v 0.356291 2.186214 -0.011390
v 0.373548 2.186214 -0.037216
v 0.392388 2.206214 -0.029413
v 0.370711 2.206214 0.003030
v 0.379608 2.186214 -0.067681
v 0.373548 2.186214 -0.098146
v 0.392388 2.206214 -0.105949
v 0.400000 2.206214 -0.067681
v 0.356291 2.186214 -0.123972
v 0.330465 2.186214 -0.141229
v 0.338268 2.206214 -0.160069
v 0.370711 2.206214 -0.138392
v 0.300000 2.146214 -0.147289
v 0.269535 2.146214 -0.141229
v 0.243708 2.146214 -0.123972
v 0.226452 2.146214 -0.098146
v 0.220392 2.146214 -0.067681
v 0.226452 2.146214 -0.037216
v 0.243709 2.146214 -0.011390
v 0.269535 2.146214 0.005867
v 0.300000 2.146214 0.011927
v 0.330465 2.146214 0.005867
v 0.356291 2.146214 -0.011390
v 0.373548 2.146214 -0.037216
v 0.379608 2.146214 -0.067681
v 0.373548 2.146214 -0.098146
v 0.356291 2.146214 -0.123972
v 0.330465 2.146214 -0.141229
vn 0.3182 0.5556 -0.7682
vn 0.3549 0.3744 -0.8567
vn -0.0000 0.3744 -0.9273
vn -0.0000 0.5556 -0.8315
vn -0.0000 0.0969 -0.9953
vn 0.3809 0.0969 -0.9195
vn 0.6557 0.3744 -0.6557
vn 0.7038 0.0969 -0.7038
vn 0.5879 0.5556 -0.5879
vn 0.7682 0.5556 -0.3182
vn 0.8567 0.3744 -0.3549
vn 0.9195 0.0969 -0.3809
vn 0.8313 0.5555 -0.0191
vn 0.9273 0.3744 -0.0000
vn 0.9953 0.0969 -0.0000
vn 0.8567 0.3744 0.3549
vn 0.9195 0.0968 0.3809
vn 0.7937 0.5541 0.2509
vn 0.7900 0.3119 0.5279
vn 0.8283 0.0868 0.5535
vn -0.8567 0.3744 0.3549
vn -0.7900 0.3119 0.5279
vn -0.7937 0.5541 0.2509
vn -0.8283 0.0868 0.5535
vn -0.9195 0.0969 0.3809
vn -0.8313 0.5555 -0.0191
vn -0.9273 0.3744 -0.0000
vn -0.9953 0.0969 -0.0000
vn -0.8567 0.3744 -0.3549
vn -0.9195 0.0969 -0.3809
vn -0.7682 0.5556 -0.3182
vn -0.5879 0.5556 -0.5879
vn -0.6557 0.3744 -0.6557
vn -0.7038 0.0969 -0.7038
vn -0.3182 0.5556 -0.7682
vn -0.3549 0.3744 -0.8567
vn -0.3809 0.0969 -0.9195
vn -1.0000 -0.0000 -0.0000
vn -0.9239 -0.0000 -0.3827
vn 1.0000 -0.0000 -0.0000
vn 0.9239 -0.0000 0.3827
vn -0.9239 -0.0000 0.3827
vn 0.9239 -0.0000 -0.3827
vn -0.7071 -0.0000 0.7071
vn -0.8117 -0.0000 0.5841
vn 0.7071 -0.0000 -0.7071
vn -0.3827 -0.0000 0.9239
vn -0.5556 -0.0000 0.8315
vn 0.3827 -0.0000 -0.9239
vn -0.0000 -0.0000 1.0000
vn 0.3827 -0.0000 0.9239
vn -0.7071 -0.0000 -0.7071
vn -0.3827 -0.0000 -0.9239
vn -0.0000 -0.0000 -1.0000
vn 0.7071 -0.0000 0.7071
vn 0.8086 -0.0000 0.5884
vn 0.5556 -0.0000 0.8315
vn 0.8315 -0.0000 0.5556
vn -0.3794 0.1308 0.9159
vn -0.7010 0.1308 0.7010
vn 0.9159 0.1308 0.3794
vn 0.7010 0.1308 0.7010
vn -0.0000 0.1308 0.9914
vn -0.9159 0.1308 0.3794
vn 0.9942 -0.0000 0.1080
vn 0.9867 0.1301 0.0972
vn -0.9942 -0.0000 0.1080
vn -0.9867 0.1301 0.0972
vn -0.9895 0.1442 -0.0000
vn 0.3794 0.1308 0.9159
vn 0.9905 0.1373 -0.0000
vn -0.0550 0.9896 0.1329
vn -0.0000 0.9896 0.1438
vn 0.0550 0.9896 0.1329
vn 0.1017 0.9896 0.1017
vn 0.1329 0.9896 0.0550
vn 0.1372 0.9904 0.0135
vn 0.0824 0.9966 -0.0000
vn -0.0000 1.0000 -0.0000
vn -0.0824 0.9966 -0.0000
vn -0.1372 0.9904 0.0135
vn -0.1329 0.9896 0.0550
vn -0.1017 0.9896 0.1017
vn -0.0000 0.8559 0.5172
vn 0.1979 0.8559 0.4778
vn -0.0000 0.4926 0.8702
vn 0.3330 0.4926 0.8040
vn 0.3657 0.8559 0.3657
vn 0.4778 0.8559 0.1979
vn 0.6154 0.4926 0.6154
vn 0.8040 0.4926 0.3330
vn -0.8649 0.4947 0.0852
vn -0.8410 0.5410 -0.0000
vn -0.9659 0.2588 -0.0000
vn -0.5079 0.8600 0.0500
vn -0.4266 0.9044 -0.0000
vn -0.3330 0.4926 0.8040
vn -0.1979 0.8559 0.4778
vn -0.4778 0.8559 0.1979
vn -0.3657 0.8559 0.3657
vn -0.8040 0.4926 0.3330
vn -0.6154 0.4926 0.6154
vn 0.5079 0.8600 0.0500
vn 0.8649 0.4947 0.0852
vn 0.4266 0.9044 -0.0000
vn 0.8410 0.5410 -0.0000
vn -0.0000 -0.7139 -0.7002
vn -0.2680 -0.7139 -0.6469
vn -0.4951 -0.7139 -0.4951
vn -0.6469 -0.7139 -0.2680
vn -0.7002 -0.7139 -0.0000
vn -0.6469 -0.7139 0.2680
vn -0.4951 -0.7139 0.4951
vn -0.2680 -0.7139 0.6469
vn -0.0000 -0.7139 0.7002
vn 0.2680 -0.7139 0.6469
vn 0.4951 -0.7139 0.4951
vn 0.6469 -0.7139 0.2680
vn 0.7002 -0.7139 -0.0000
vn 0.6469 -0.7139 -0.2680
vn 0.4951 -0.7139 -0.4951
vn 0.2680 -0.7139 -0.6469
vn -0.0000 -1.0000 -0.0000
vt 0.687500 0.750000
vt 0.687500 0.625000
vt 0.750000 0.625000
vt 0.750000 0.750000
vt 0.750000 0.500000
vt 0.687500 0.500000
vt 0.625000 0.625000
vt 0.625000 0.500000
vt 0.625000 0.750000
vt 0.562500 0.750000
vt 0.562500 0.625000
vt 0.562500 0.500000
vt 0.500000 0.750000
vt 0.500000 0.625000
vt 0.500000 0.500000
vt 0.437500 0.625000
vt 0.437500 0.500000
vt 0.437500 0.716405
vt 0.391798 0.625000
vt 0.375000 0.500000
vt 0.437500 0.716405
vt 0.391798 0.625000
vt 0.062500 0.625000
vt 0.108202 0.625000
vt 0.062500 0.716405
vt 0.125000 0.500000
vt 0.062500 0.500000
vt 0.000000 0.750000
vt 0.000000 0.625000
vt 0.062500 0.716405
vt 0.000000 0.500000
vt 1.000000 0.500000
vt 1.000000 0.625000
vt 0.937500 0.625000
vt 0.937500 0.500000
vt 0.937500 0.750000
vt 1.000000 0.750000
vt 0.875000 0.750000
vt 0.875000 0.625000
vt 0.875000 0.500000
vt 0.812500 0.750000
vt 0.812500 0.625000
vt 0.812500 0.500000
vt 0.000000 0.000000
s 1
usemtl WhitePlastic
f 135/1/1 4/2/2 2/3/3 134/4/4
f 32/5/5 2/3/3 4/2/2 5/6/6
f 5/6/6 4/2/2 7/7/7 19/8/8
f 136/9/9 7/7/7 4/2/2 135/1/1
f 154/10/10 9/11/11 7/7/7 136/9/9
f 19/8/8 7/7/7 9/11/11 10/12/12
f 138/13/13 12/14/14 9/11/11 154/10/10
f 10/12/12 9/11/11 12/14/14 13/15/15
f 13/15/15 12/14/14 14/16/16 15/17/17
f 139/18/18 14/16/16 12/14/14 138/13/13
f 15/17/17 14/16/16 140/19/19 141/20/20
f 14/16/16 139/21/18 140/22/19
f 17/23/21 153/24/22 152/25/23
f 158/26/24 153/24/22 17/23/21 18/27/25
f 155/28/26 21/29/27 17/23/21 152/30/23
f 18/27/25 17/23/21 21/29/27 29/31/28
f 29/32/28 21/33/27 23/34/29 30/35/30
f 156/36/31 23/34/29 21/33/27 155/37/26
f 157/38/32 25/39/33 23/34/29 156/36/31
f 30/35/30 23/34/29 25/39/33 31/40/34
f 25/39/33 157/38/32 137/41/35 27/42/36
f 31/40/34 25/39/33 27/42/36 28/43/37
f 28/43/37 27/42/36 2/3/3 32/5/5
f 134/4/4 2/3/3 27/42/36 137/41/35
f 95/44/38 29/44/28 30/44/30 93/44/39
f 111/44/40 13/44/15 15/44/17 109/44/41
f 97/44/42 18/44/25 29/44/28 95/44/38
f 113/44/43 10/44/12 13/44/15 111/44/40
f 158/44/24 18/44/25 97/44/42 99/44/44 76/44/45
f 114/44/46 19/44/8 10/44/12 113/44/43
f 76/44/45 99/44/44 101/44/47 144/44/47 143/44/48 145/44/48 146/44/48
f 117/44/49 5/44/6 19/44/8 114/44/46
f 144/44/47 101/44/47 103/44/50 147/44/50
f 103/44/50 105/44/51 148/44/51 147/44/50
f 91/44/52 31/44/34 28/44/37 89/44/53
f 89/44/53 28/44/37 32/44/5 86/44/54
f 148/44/51 105/44/51 107/44/55 149/44/56 150/44/57 85/44/57 84/44/57
f 93/44/39 30/44/30 31/44/34 91/44/52
f 149/44/56 107/44/55 109/44/41 15/44/17 141/44/20 142/44/58
f 86/44/54 32/44/5 5/44/6 117/44/49
f 3/44/47 62/44/59 58/44/60 6/44/44
f 22/44/41 42/44/61 38/44/62 24/44/55
f 1/44/50 66/44/63 62/44/59 3/44/47
f 58/44/60 54/44/64 8/44/42 6/44/44
f 20/44/65 46/44/66 42/44/61 22/44/41
f 70/44/38 69/44/38 11/44/67 50/44/68 74/44/69 73/44/38
f 24/44/55 38/44/62 34/44/70 26/44/51
f 159/44/71 46/44/66 20/44/65 71/44/40 72/44/40 16/44/40
f 54/44/64 50/44/68 11/44/67 8/44/42
f 61/44/72 65/44/73 33/44/74 37/44/75 41/44/76 45/44/77 77/44/78 78/44/79 81/44/79 82/44/79 160/44/80 49/44/81 53/44/82 57/44/83
f 65/44/73 67/44/84 35/44/85 33/44/74
f 67/44/84 68/44/86 36/44/87 35/44/85
f 68/44/86 66/44/63 34/44/70 36/44/87
f 37/44/75 39/44/88 43/44/89 41/44/76
f 39/44/88 40/44/90 44/44/91 43/44/89
f 40/44/90 38/44/62 42/44/61 44/44/91
f 74/44/69 50/44/68 52/44/92 83/44/93 75/44/94
f 83/44/93 52/44/92 51/44/95 151/44/96
f 151/44/96 51/44/95 49/44/81 160/44/80
f 66/44/63 68/44/86 64/44/97 62/44/59
f 68/44/86 67/44/84 63/44/98 64/44/97
f 67/44/84 65/44/73 61/44/72 63/44/98
f 53/44/82 55/44/99 59/44/100 57/44/83
f 55/44/99 56/44/101 60/44/102 59/44/100
f 56/44/101 54/44/64 58/44/60 60/44/102
f 57/44/83 59/44/100 63/44/98 61/44/72
f 59/44/100 60/44/102 64/44/97 63/44/98
f 60/44/102 58/44/60 62/44/59 64/44/97
f 41/44/76 43/44/89 47/44/103 45/44/77
f 43/44/89 44/44/91 48/44/104 47/44/103
f 44/44/91 42/44/61 46/44/66 48/44/104
f 38/44/62 40/44/90 36/44/87 34/44/70
f 40/44/90 39/44/88 35/44/85 36/44/87
f 39/44/88 37/44/75 33/44/74 35/44/85
f 54/44/64 56/44/101 52/44/92 50/44/68
f 56/44/101 55/44/99 51/44/95 52/44/92
f 55/44/99 53/44/82 49/44/81 51/44/95
f 77/44/78 45/44/77 47/44/103 79/44/105
f 79/44/105 47/44/103 48/44/104 80/44/106
f 80/44/106 48/44/104 46/44/66 159/44/71
f 26/44/51 34/44/70 66/44/63 1/44/50
f 161/44/107 162/44/108 163/44/108 164/44/107
f 165/44/109 166/44/110 167/44/110 168/44/109
f 169/44/111 170/44/112 171/44/112 172/44/111
f 173/44/113 174/44/114 175/44/114 176/44/113
f 177/44/115 178/44/116 179/44/116 180/44/115
f 181/44/117 182/44/118 183/44/118 184/44/117
f 185/44/119 186/44/120 187/44/120 188/44/119
f 189/44/121 190/44/122 191/44/122 192/44/121
f 164/44/107 191/44/122 190/44/122 161/44/107
f 162/44/108 165/44/109 168/44/109 163/44/108
f 166/44/110 169/44/111 172/44/111 167/44/110
f 170/44/112 173/44/113 176/44/113 171/44/112
f 174/44/114 177/44/115 180/44/115 175/44/114
f 178/44/116 181/44/117 184/44/117 179/44/116
f 182/44/118 185/44/119 188/44/119 183/44/118
f 186/44/120 189/44/121 192/44/121 187/44/120
f 100/44/47 98/44/44 199/44/44 200/44/47
f 201/44/123 125/44/123 124/44/123 198/44/123 197/44/123 196/44/123 195/44/123 194/44/123 193/44/123 208/44/123 207/44/123 206/44/123 205/44/123 204/44/123 203/44/123 202/44/123
f 108/44/41 106/44/55 128/44/55 129/44/41
f 94/44/38 92/44/39 121/44/39 122/44/38
f 116/44/49 115/44/46 132/44/46 133/44/49
f 110/44/40 108/44/41 129/44/41 130/44/40
f 88/44/53 87/44/54 118/44/54 119/44/53
f 98/44/44 96/44/42 123/44/42 199/44/44
f 115/44/46 112/44/43 131/44/43 132/44/46
f 96/44/42 94/44/38 122/44/38 123/44/42
f 104/44/51 102/44/50 126/44/50 127/44/51
f 112/44/43 110/44/40 130/44/40 131/44/43
f 102/44/50 100/44/47 200/44/47 126/44/50
f 87/44/54 116/44/49 133/44/49 118/44/54
f 90/44/52 88/44/53 119/44/53 120/44/52
f 106/44/55 104/44/51 127/44/51 128/44/55
f 92/44/39 90/44/52 120/44/52 121/44/39
