# Blender 3.6.7
# www.blender.org
mtllib turret.mtl
o Turret
v -0.429260 0.565918 0.355462
v -0.400000 0.758900 0.021082
v -0.421687 0.625102 0.324340
v -0.414630 0.677452 0.278533
v -0.408570 0.719401 0.221164
v -0.403920 0.748089 0.156142
v -0.400997 0.761561 0.087898
v -0.147653 0.700000 -0.332319
v -0.400000 0.745406 -0.059884
v -0.212965 0.701547 -0.323036
v -0.273826 0.706083 -0.295820
v -0.326089 0.713299 -0.252525
v -0.366192 0.722703 -0.196101
v -0.391401 0.733654 -0.130395
v 0.400000 0.758900 0.021082
v 0.429260 0.565918 0.355461
v 0.400997 0.761561 0.087898
v 0.403920 0.748089 0.156142
v 0.408570 0.719401 0.221164
v 0.414630 0.677452 0.278533
v 0.421687 0.625102 0.324339
v 0.400000 0.745406 -0.059884
v 0.147652 0.700000 -0.332319
v 0.391401 0.733654 -0.130395
v 0.366192 0.722703 -0.196102
v 0.326089 0.713299 -0.252525
v 0.273826 0.706083 -0.295820
v 0.212965 0.701547 -0.323036
v -0.450000 0.000000 0.517681
v -0.493936 0.048507 0.549491
v 0.450000 0.000000 0.517681
v 0.493937 0.048507 0.549490
v -0.450000 0.000000 -0.269328
v -0.493496 0.048482 -0.258682
v -0.244280 0.000000 -0.482319
v -0.240785 0.048070 -0.518585
v -0.442619 0.000000 -0.327046
v -0.484802 0.048421 -0.325937
v -0.422226 0.000000 -0.377736
v -0.459507 0.048313 -0.388623
v -0.389931 0.000000 -0.421068
v -0.419332 0.048201 -0.442458
v -0.348071 0.000000 -0.454138
v -0.367011 0.048119 -0.483766
v -0.299560 0.000000 -0.474826
v -0.306112 0.048079 -0.509730
v 0.244279 0.000000 -0.482319
v 0.240785 0.048070 -0.518585
v 0.450000 0.000000 -0.269328
v 0.493496 0.048482 -0.258682
v 0.299560 0.000000 -0.474826
v 0.306111 0.048079 -0.509730
v 0.348070 0.000000 -0.454139
v 0.367011 0.048119 -0.483766
v 0.389931 0.000000 -0.421068
v 0.419331 0.048201 -0.442459
v 0.422226 0.000000 -0.377736
v 0.459507 0.048312 -0.388623
v 0.442619 0.000000 -0.327047
v 0.484801 0.048421 -0.325937
v -0.294000 0.400000 -0.132319
v -0.294000 0.100000 0.167681
v -0.294000 0.105764 0.109154
v -0.294000 0.122836 0.052876
v -0.294000 0.150559 0.001010
v -0.294000 0.187868 -0.044451
v -0.294000 0.233329 -0.081760
v -0.294000 0.285195 -0.109483
v -0.294000 0.341473 -0.126555
v 0.204000 0.400000 -0.132319
v 0.204000 0.100000 0.167681
v 0.204000 0.105764 0.109154
v 0.204000 0.122836 0.052876
v 0.204000 0.150559 0.001010
v 0.204000 0.187868 -0.044451
v 0.204000 0.233329 -0.081760
v 0.204000 0.285195 -0.109483
v 0.204000 0.341473 -0.126555
v -0.294000 0.100000 0.530181
v -0.294000 0.730162 -0.150889
v -0.294000 0.758900 0.021082
v 0.204000 0.758900 0.021082
v 0.204000 0.730162 -0.150890
v -0.294000 0.761561 0.087898
v 0.204000 0.761561 0.087898
v -0.294000 0.748089 0.156142
v 0.204000 0.748089 0.156142
v -0.294000 0.565918 0.355462
v -0.294000 0.625102 0.324340
v -0.294000 0.719401 0.221164
v 0.204000 0.719401 0.221164
v -0.294000 0.677452 0.278533
v 0.204000 0.677452 0.278533
v 0.204000 0.625102 0.324340
v 0.204000 0.100000 0.530181
v 0.204000 0.565918 0.355462
v -0.294000 0.712732 -0.132319
v 0.204000 0.712732 -0.132319
v -0.429260 0.565918 0.355462
v -0.421687 0.625102 0.324340
v -0.414630 0.677452 0.278533
v -0.408570 0.719401 0.221164
v -0.403920 0.748089 0.156142
v 0.204000 0.100000 0.167681
v 0.204000 0.100000 0.530181
v 0.204000 0.100000 0.530181
v -0.273826 0.706083 -0.295820
v -0.326089 0.713299 -0.252525
v -0.366192 0.722703 -0.196101
v -0.391401 0.733654 -0.130395
v 0.400000 0.758900 0.021082
v 0.400997 0.761561 0.087898
v 0.403920 0.748089 0.156142
v 0.408570 0.719401 0.221164
v 0.414630 0.677452 0.278533
v 0.400000 0.745406 -0.059884
v 0.366192 0.722703 -0.196102
v 0.326089 0.713299 -0.252525
v 0.273826 0.706083 -0.295820
v 0.212965 0.701547 -0.323036
v -0.493936 0.048507 0.549491
v -0.493936 0.048507 0.549491
v -0.493936 0.048507 0.549491
v -0.450000 0.000000 0.517681
v -0.450000 0.000000 0.517681
v 0.450000 0.000000 0.517681
v 0.450000 0.000000 0.517681
v 0.493937 0.048507 0.549490
v 0.493937 0.048507 0.549490
v 0.493937 0.048507 0.549490
v -0.450000 0.000000 -0.269328
v -0.442619 0.000000 -0.327046
v -0.422226 0.000000 -0.377736
v -0.389931 0.000000 -0.421068
v -0.348071 0.000000 -0.454138
v -0.244280 0.000000 -0.482319
v -0.299560 0.000000 -0.474826
v 0.244279 0.000000 -0.482319
v 0.450000 0.000000 -0.269328
v 0.299560 0.000000 -0.474826
v 0.348070 0.000000 -0.454139
v 0.389931 0.000000 -0.421068
v 0.422226 0.000000 -0.377736
v 0.442619 0.000000 -0.327047
v -0.294000 0.105764 0.109154
v -0.294000 0.122836 0.052876
v -0.294000 0.150559 0.001010
v -0.294000 0.187868 -0.044451
v -0.294000 0.233329 -0.081760
v -0.294000 0.285195 -0.109483
v -0.294000 0.400000 -0.132319
v -0.294000 0.341473 -0.126555
v -0.294000 0.712732 -0.132319
v -0.294000 0.712732 -0.132319
v -0.294000 0.758900 0.021082
v -0.294000 0.761561 0.087898
v 0.204000 0.761561 0.087898
v 0.204000 0.748089 0.156142
v 0.204000 0.719401 0.221164
v -0.294000 0.625102 0.324340
v -0.294000 0.677452 0.278533
v 0.204000 0.677452 0.278533
v -0.294000 0.100000 0.530181
v -0.294000 0.100000 0.530181
v 0.204000 0.565918 0.355462
v -0.400000 0.745406 -0.059884
v 0.204000 0.105764 0.109154
v 0.204000 0.122836 0.052876
v 0.204000 0.625102 0.324340
v 0.204000 0.150559 0.001010
v 0.204000 0.187868 -0.044451
v -0.493496 0.048482 -0.258682
v -0.484802 0.048421 -0.325937
v 0.204000 0.400000 -0.132319
v 0.204000 0.712732 -0.132319
v 0.204000 0.712732 -0.132319
v -0.294000 0.565918 0.355462
v 0.204000 0.233329 -0.081760
v 0.204000 0.285195 -0.109483
v -0.240785 0.048070 -0.518585
v -0.306112 0.048079 -0.509730
v -0.400000 0.758900 0.021082
v -0.400997 0.761561 0.087898
v -0.147653 0.700000 -0.332319
v -0.212965 0.701547 -0.323036
v 0.421687 0.625102 0.324339
v -0.294000 0.730162 -0.150889
v -0.294000 0.730162 -0.150889
v 0.204000 0.730162 -0.150890
v 0.204000 0.730162 -0.150890
v 0.147652 0.700000 -0.332319
v 0.391401 0.733654 -0.130395
v 0.429260 0.565918 0.355461
v -0.459507 0.048313 -0.388623
v -0.419332 0.048201 -0.442458
v -0.367011 0.048119 -0.483766
v 0.240785 0.048070 -0.518585
v 0.493496 0.048482 -0.258682
v 0.306111 0.048079 -0.509730
v 0.367011 0.048119 -0.483766
v 0.419331 0.048201 -0.442459
v 0.459507 0.048312 -0.388623
v -0.294000 0.100000 0.167681
v 0.204000 0.341473 -0.126555
v 0.204000 0.758900 0.021082
v -0.294000 0.748089 0.156142
v -0.294000 0.719401 0.221164
v 0.484801 0.048421 -0.325937
vn -0.0004 0.9864 -0.1642
vn -0.0003 0.9864 -0.1641
vn -0.0002 0.9864 -0.1643
vn -0.0000 -1.0000 -0.0000
vn -0.8481 0.2497 -0.4673
vn -0.9418 0.2054 -0.2661
vn -0.9514 0.1962 -0.2374
vn 0.9930 0.1168 -0.0195
vn -0.0599 0.2821 -0.9575
vn 0.0693 0.2832 -0.9566
vn -0.0693 0.2832 -0.9566
vn 0.2503 0.2986 -0.9209
vn 0.0599 0.2821 -0.9575
vn -0.2503 0.2986 -0.9209
vn -0.4845 0.3032 -0.8206
vn -0.4885 0.3025 -0.8184
vn -0.6802 0.2883 -0.6740
vn -0.6909 0.2857 -0.6641
vn -0.8357 0.2552 -0.4864
vn 0.4845 0.3032 -0.8206
vn 0.4885 0.3025 -0.8184
vn 0.9418 0.2054 -0.2661
vn 0.8481 0.2497 -0.4673
vn 0.9514 0.1962 -0.2374
vn 0.8356 0.2552 -0.4864
vn 0.6909 0.2857 -0.6641
vn 0.6802 0.2883 -0.6740
vn 0.9852 0.1532 -0.0770
vn 0.9873 0.1462 -0.0624
vn -0.0000 0.9948 -0.1020
vn -0.0000 0.9970 0.0775
vn 0.0001 0.9947 -0.1024
vn -0.0000 0.9968 0.0796
vn -0.0000 0.9538 0.3005
vn -0.0000 0.9526 0.3041
vn -0.0000 0.8661 0.4999
vn -0.0000 0.8635 0.5043
vn -0.0000 0.7373 0.6755
vn -0.0000 0.7329 0.6803
vn -0.0000 0.5659 0.8245
vn -0.0000 0.5592 0.8290
vn -0.0000 0.4091 0.9125
vn -0.0000 0.4049 0.9144
vn -0.0000 -0.5484 0.8362
vn -0.0574 -0.5986 -0.7990
vn -0.2111 -0.5929 -0.7771
vn -0.0507 -0.5991 -0.7990
vn -0.2176 -0.5926 -0.7755
vn -0.4136 -0.5898 -0.6936
vn -0.5705 -0.5980 -0.5630
vn -0.4111 -0.5898 -0.6951
vn -0.6824 -0.6156 -0.3942
vn -0.5784 -0.5986 -0.5542
vn -0.7402 -0.6402 -0.2055
vn -0.6902 -0.6175 -0.3772
vn -0.7492 -0.6601 -0.0543
vn -0.7433 -0.6435 -0.1827
vn 0.7492 -0.6601 -0.0543
vn 0.7433 -0.6435 -0.1827
vn 0.7482 -0.6622 -0.0419
vn 0.7402 -0.6402 -0.2055
vn 0.6902 -0.6175 -0.3772
vn 0.6824 -0.6156 -0.3942
vn 0.5784 -0.5986 -0.5542
vn 0.5705 -0.5980 -0.5630
vn 0.4136 -0.5898 -0.6936
vn 0.2176 -0.5926 -0.7755
vn 0.4111 -0.5898 -0.6951
vn 0.0574 -0.5986 -0.7990
vn 0.2111 -0.5929 -0.7771
vn -0.7414 -0.6710 -0.0004
vn -0.7482 -0.6622 -0.0419
vn 0.7414 -0.6710 -0.0004
vn -0.0000 0.3511 0.9363
vn -0.0000 0.9239 0.3827
vn -0.0000 0.8315 0.5556
vn -0.0000 0.7071 0.7071
vn -0.0000 0.5556 0.8315
vn -0.0000 0.3827 0.9239
vn -0.0000 0.1951 0.9808
vn -0.0000 0.0491 0.9988
vn -0.0000 0.9988 0.0491
vn -0.0000 0.9808 0.1951
vn -0.0000 1.0000 -0.0000
vn 1.0000 -0.0000 -0.0000
vn -0.0000 -0.0000 1.0000
vn -1.0000 -0.0000 -0.0000
vn -0.0000 0.7292 0.6844
vn -0.9852 0.1532 -0.0770
vn -0.9873 0.1462 -0.0624
vn -0.9923 0.1238 -0.0005
vn -0.9919 0.1268 -0.0087
vn -0.0002 0.9865 -0.1640
vn -0.0001 0.9865 -0.1640
vn -0.0000 0.9865 -0.1640
vn 0.0001 0.9865 -0.1639
vn 0.0005 0.9864 -0.1642
vn 0.0003 0.9865 -0.1639
vn 0.0006 0.9865 -0.1638
vn 0.0008 0.9865 -0.1640
vn 0.0008 0.9864 -0.1642
vn 0.0003 0.9864 -0.1646
vn -0.0001 0.9947 -0.1025
vn -0.0002 0.9864 -0.1645
vn -0.0004 0.9864 -0.1643
vn 0.9919 0.1268 -0.0087
vn 0.9923 0.1238 -0.0005
vn 0.2578 0.2992 -0.9187
vn -0.2578 0.2992 -0.9187
vn 0.0507 -0.5991 -0.7990
vn -0.7413 -0.6712 -0.0004
vn 0.7413 -0.6712 -0.0004
vn -0.9930 0.1168 -0.0195
vt 0.635565 0.556757
vt 0.648097 0.533248
vt 0.686250 0.583333
vt 0.152517 0.525284
vt 0.162982 0.517768
vt 0.175110 0.513067
vt 0.626494 0.193314
vt 0.391883 0.203602
vt 0.625377 0.165873
vt 0.614392 0.701391
vt 0.602401 0.723922
vt 0.625000 0.647251
vt 0.625000 0.328859
vt 0.392168 0.435830
vt 0.392168 0.314170
vt 0.626387 0.441592
vt 0.625000 0.421141
vt 0.626387 0.308408
vt 0.395469 0.281934
vt 0.630452 0.289246
vt 0.401654 0.250000
vt 0.625000 0.250000
vt 0.393228 0.218802
vt 0.392168 0.314170
vt 0.395469 0.468066
vt 0.630452 0.460754
vt 0.391883 0.546398
vt 0.626494 0.556686
vt 0.625377 0.584127
vt 0.393228 0.531198
vt 0.625000 0.500000
vt 0.401654 0.500000
vt 0.391260 0.562590
vt 0.625000 0.613515
vt 0.875000 0.647251
vt 0.813750 0.674518
vt 0.813750 0.647251
vt 0.686250 0.674518
vt 0.624688 0.674518
vt 0.875312 0.674518
vt 0.813750 0.701274
vt 0.686250 0.701274
vt 0.686250 0.674518
vt 0.876225 0.701274
vt 0.812413 0.750000
vt 0.813750 0.701274
vt 0.687587 0.750000
vt 0.623775 0.701274
vt 0.625000 1.000000
vt 0.590310 0.936607
vt 0.625000 0.937413
vt 0.590310 0.813393
vt 0.625000 0.750000
vt 0.625000 0.812587
vt 0.590310 1.000216
vt 0.571262 0.935498
vt 0.590310 0.749784
vt 0.571262 0.814502
vt 0.571262 0.749946
vt 0.571262 1.000055
vt 0.551849 0.934404
vt 0.571262 0.935498
vt 0.551849 0.815595
vt 0.551849 0.750000
vt 0.362500 0.738636
vt 0.126516 0.750000
vt 0.137500 0.738636
vt 0.188930 0.511364
vt 0.172984 0.501861
vt 0.188087 0.500000
vt 0.156745 0.507833
vt 0.171759 0.502012
vt 0.155921 0.508358
vt 0.144444 0.535132
vt 0.142432 0.518570
vt 0.139345 0.546653
vt 0.132491 0.531695
vt 0.137500 0.559771
vt 0.126742 0.546666
vt 0.362500 0.559771
vt 0.391883 0.546398
vt 0.360655 0.546653
vt 0.367509 0.531695
vt 0.372850 0.543765
vt 0.355556 0.535132
vt 0.357568 0.518570
vt 0.366548 0.529524
vt 0.347483 0.525284
vt 0.344079 0.508358
vt 0.356522 0.517294
vt 0.324890 0.513067
vt 0.343255 0.507833
vt 0.337018 0.517768
vt 0.311070 0.511364
vt 0.327016 0.501861
vt 0.125000 0.562190
vt 0.189804 0.500000
vt 0.406250 0.822841
vt 0.406250 0.927159
vt 0.390158 1.000000
vt 0.000000 0.000000
vt 0.813750 0.583333
vt 0.125000 0.559047
vt 0.875000 0.613515
vt 0.125000 0.745866
vt 0.551849 1.000000
vt 0.664429 0.515208
vt 0.683448 0.503868
vt 0.703859 0.500000
vt 0.796141 0.500000
vt 0.816552 0.503868
vt 0.835571 0.515208
vt 0.851903 0.533248
vt 0.864435 0.556757
vt 0.872313 0.584135
vt 0.813750 0.647251
vt 0.686250 0.647251
vt 0.627687 0.584135
vt 0.587630 0.738953
vt 0.570547 0.747303
vt 0.390158 0.750000
vt 0.622265 0.674675
vt 0.393006 0.452471
vt 0.393006 0.297529
vt 0.395469 0.281934
vt 0.393006 0.297529
vt 0.393006 0.452471
vt 0.395469 0.468066
vt 0.686250 0.647251
vt 0.875000 0.750000
vt 0.590310 0.813393
vt 0.571262 0.814502
vt 0.373484 0.750000
vt 0.143478 0.517295
vt 0.133452 0.529524
vt 0.127150 0.543765
vt 0.328241 0.502012
vt 0.311913 0.500000
vt 0.310196 0.500000
vt 0.551849 0.934405
vt 0.390158 0.750000
vt 0.551849 0.815596
s 1
usemtl Yellow
f 117/1/1 118/2/2 83/3/3
f 41/4/4 135/5/4 137/6/4
f 109/7/5 38/8/6 110/9/7
f 113/10/8 114/11/8 15/12/8
f 184/13/9 48/14/10 36/15/11
f 120/16/12 48/14/10 23/17/13
f 185/18/14 196/19/15 107/20/16
f 107/20/16 42/21/17 108/22/18
f 108/22/18 194/23/19 109/7/5
f 36/24/11 185/18/14 184/13/9
f 200/25/20 120/16/12 119/26/21
f 60/27/22 25/28/23 192/29/24
f 202/30/25 26/31/26 25/28/23
f 56/32/27 119/26/21 26/31/26
f 50/33/28 192/29/24 22/34/29
f 182/35/30 156/36/31 155/37/32
f 111/12/30 157/38/31 112/39/33
f 183/40/33 206/41/34 156/36/31
f 158/42/34 112/39/33 157/43/31
f 103/44/35 207/45/36 206/46/34
f 159/47/36 18/48/35 158/42/34
f 102/49/37 161/50/38 207/51/36
f 162/52/38 19/53/37 159/54/36
f 101/55/39 160/56/40 161/50/38
f 20/57/39 169/58/40 186/59/41
f 100/60/41 177/61/42 160/62/40
f 186/59/41 165/63/42 16/64/43
f 126/65/44 122/66/44 124/67/44
f 136/68/45 181/69/46 180/70/47
f 45/6/48 44/71/49 181/72/46
f 134/4/50 44/73/49 43/5/51
f 133/74/52 195/75/53 134/4/50
f 132/76/54 40/77/55 133/74/52
f 131/78/56 173/79/57 132/76/54
f 139/80/58 208/81/59 198/33/60
f 59/82/61 58/83/62 208/84/59
f 57/85/63 201/86/64 58/87/62
f 55/88/65 54/89/66 201/90/64
f 140/91/67 54/92/66 141/93/68
f 138/94/69 199/95/70 140/91/67
f 125/67/71 172/96/72 131/78/56
f 180/97/47 138/94/69 136/68/45
f 198/33/60 127/65/73 139/80/58
f 106/98/74 163/99/74 123/100/74
f 146/101/75 170/101/76 147/101/76
f 147/101/76 171/101/77 148/101/77
f 149/101/78 171/101/77 178/101/78
f 149/101/78 179/101/79 150/101/79
f 150/101/79 204/101/80 152/101/80
f 152/101/80 174/101/81 151/101/81
f 203/101/82 167/101/83 145/101/83
f 145/101/83 168/101/75 146/101/75
f 104/101/82 164/101/84 105/101/84
f 86/101/85 90/101/85 61/101/85
f 151/101/81 175/101/86 153/101/86
f 94/101/87 93/101/87 70/101/87
f 187/102/88 98/101/88 189/3/88
f 190/3/87 176/101/87 82/101/87
f 81/101/85 154/101/85 188/102/85
f 110/9/7 34/103/89 166/104/90
f 34/103/89 121/105/91 1/106/92
f 27/107/93 28/108/94 83/3/3
f 28/108/94 191/109/95 83/3/3
f 191/109/95 8/110/95 83/3/3
f 8/110/95 10/111/96 80/102/97
f 83/3/3 8/110/95 80/102/97
f 10/111/96 11/112/98 80/102/97
f 11/112/98 12/113/99 80/102/97
f 12/113/99 13/114/100 80/102/97
f 13/114/100 14/115/101 80/102/97
f 14/115/101 9/104/102 80/102/97
f 9/104/102 182/35/30 155/116/32
f 80/102/97 9/104/102 155/116/32
f 83/3/3 205/117/103 116/34/104
f 205/117/103 111/12/30 116/34/104
f 83/3/3 116/34/104 24/118/105
f 118/2/2 27/107/93 83/3/3
f 24/118/105 117/1/1 83/3/3
f 137/6/4 35/68/4 41/4/4
f 35/68/4 47/94/4 33/78/4
f 47/94/4 51/91/4 142/88/4
f 51/91/4 53/93/4 142/88/4
f 142/88/4 143/85/4 47/94/4
f 143/85/4 144/82/4 47/94/4
f 144/82/4 49/80/4 47/94/4
f 49/80/4 31/65/4 29/67/4
f 29/67/4 33/78/4 49/80/4
f 33/78/4 37/76/4 35/68/4
f 49/80/4 33/78/4 47/94/4
f 37/76/4 39/74/4 35/68/4
f 39/74/4 41/4/4 35/68/4
f 109/7/5 194/23/19 38/8/6
f 114/11/8 115/119/8 193/64/106
f 115/119/8 21/120/8 193/64/106
f 193/64/106 129/121/107 50/33/28
f 50/33/28 22/34/29 193/64/106
f 193/64/106 15/12/8 114/11/8
f 22/34/29 15/12/8 193/64/106
f 15/12/8 17/122/8 113/10/8
f 184/13/9 23/17/13 48/14/10
f 120/16/12 52/123/108 48/14/10
f 185/18/14 46/124/109 196/19/15
f 107/20/16 196/125/15 42/21/17
f 108/22/18 42/21/17 194/23/19
f 36/24/11 46/126/109 185/18/14
f 200/25/20 52/127/108 120/16/12
f 60/27/22 202/30/25 25/28/23
f 202/30/25 56/32/27 26/31/26
f 56/32/27 200/128/20 119/26/21
f 50/33/28 60/81/22 192/29/24
f 182/35/30 183/40/33 156/36/31
f 111/12/30 205/129/103 157/38/31
f 183/40/33 103/44/35 206/41/34
f 158/42/34 18/48/35 112/39/33
f 103/44/35 102/130/37 207/45/36
f 159/47/36 19/53/37 18/48/35
f 102/49/37 101/55/39 161/50/38
f 162/52/38 20/57/39 19/53/37
f 101/55/39 100/60/41 160/56/40
f 20/57/39 162/131/38 169/58/40
f 100/60/41 99/106/43 177/61/42
f 186/59/41 169/132/40 165/63/42
f 126/65/44 128/133/44 122/66/44
f 136/68/45 45/6/48 181/69/46
f 45/6/48 43/5/51 44/71/49
f 134/4/50 195/134/53 44/73/49
f 133/74/52 40/135/55 195/75/53
f 132/76/54 173/136/57 40/77/55
f 131/78/56 172/103/72 173/79/57
f 139/80/58 59/82/61 208/81/59
f 59/82/61 57/85/63 58/83/62
f 57/85/63 55/88/65 201/86/64
f 55/88/65 141/93/68 54/89/66
f 140/91/67 199/137/70 54/92/66
f 138/94/69 197/138/110 199/95/70
f 125/67/71 30/105/111 172/96/72
f 180/97/47 197/139/110 138/94/69
f 198/33/60 32/121/112 127/65/73
f 163/99/74 177/140/42 99/106/43
f 130/141/74 16/64/43 106/98/74
f 16/64/43 165/142/42 106/98/74
f 163/99/74 99/106/43 123/100/74
f 130/141/74 106/98/74 123/100/74
f 146/101/75 168/101/75 170/101/76
f 147/101/76 170/101/76 171/101/77
f 149/101/78 148/101/77 171/101/77
f 149/101/78 178/101/78 179/101/79
f 150/101/79 179/101/79 204/101/80
f 152/101/80 204/101/80 174/101/81
f 203/101/82 104/101/82 167/101/83
f 145/101/83 167/101/83 168/101/75
f 104/101/82 203/101/82 164/101/84
f 90/101/85 92/101/85 61/101/85
f 92/101/85 89/101/85 61/101/85
f 89/101/85 88/101/85 61/101/85
f 88/101/85 79/101/85 62/101/85
f 63/101/85 88/101/85 62/101/85
f 63/101/85 64/101/85 88/101/85
f 64/101/85 65/101/85 88/101/85
f 65/101/85 66/101/85 88/101/85
f 66/101/85 67/101/85 88/101/85
f 67/101/85 68/101/85 88/101/85
f 68/101/85 69/101/85 88/101/85
f 69/101/85 61/101/85 88/101/85
f 61/101/85 154/101/85 81/101/85
f 84/101/85 61/101/85 81/101/85
f 84/101/85 86/101/85 61/101/85
f 151/101/81 174/101/81 175/101/86
f 93/101/87 91/101/87 70/101/87
f 91/101/87 87/101/87 70/101/87
f 87/101/87 85/101/87 70/101/87
f 85/101/87 82/101/87 70/101/87
f 82/101/87 176/101/87 70/101/87
f 70/101/87 78/101/87 96/101/87
f 78/101/87 77/101/87 96/101/87
f 77/101/87 76/101/87 96/101/87
f 76/101/87 75/101/87 96/101/87
f 75/101/87 74/101/87 96/101/87
f 74/101/87 73/101/87 96/101/87
f 73/101/87 72/101/87 96/101/87
f 72/101/87 71/101/87 96/101/87
f 71/101/87 95/101/87 96/101/87
f 96/101/87 94/101/87 70/101/87
f 187/102/88 97/101/88 98/101/88
f 110/9/7 38/8/6 34/103/89
f 1/106/92 3/60/113 4/55/113
f 4/55/113 5/49/113 1/106/92
f 5/49/113 6/44/113 2/35/113
f 1/106/92 5/49/113 2/35/113
f 6/44/113 7/40/113 2/35/113
f 2/35/113 166/104/90 1/106/92
f 166/104/90 34/103/89 1/106/92
