# Blender 3.6.7
# www.blender.org
mtllib turret_drive_key.mtl
o TurretDriveKey
v 0.100000 0.000000 -0.000000
v 0.050000 0.000000 -0.086603
v -0.050000 0.000000 -0.086603
v -0.100000 0.000000 -0.000000
v -0.050000 0.000000 0.086602
v 0.050000 0.000000 0.086602
v 0.100000 0.085839 -0.000000
v 0.050000 0.085839 -0.086603
v -0.050000 0.085839 -0.086603
v -0.100000 0.085839 -0.000000
v -0.050000 0.085839 0.086602
v 0.050000 0.085839 0.086602
v -0.000000 0.000000 -0.120000
v -0.045922 0.000000 -0.110866
v -0.084853 0.000000 -0.084853
v -0.110866 0.000000 -0.045922
v -0.120000 0.000000 0.000000
v -0.110866 0.000000 0.045922
v -0.084853 0.000000 0.084853
v -0.045922 0.000000 0.110865
v 0.000000 0.000000 0.120000
v 0.045922 0.000000 0.110865
v 0.084853 0.000000 0.084853
v 0.110866 0.000000 0.045922
v 0.120000 0.000000 -0.000000
v 0.110866 0.000000 -0.045922
v 0.084853 0.000000 -0.084853
v 0.045922 0.000000 -0.110866
v -0.000000 -0.034161 -0.120000
v -0.045922 -0.034161 -0.110866
v -0.084853 -0.034161 -0.084853
v -0.110866 -0.034161 -0.045922
v -0.120000 -0.034161 0.000000
v -0.110866 -0.034161 0.045922
v -0.084853 -0.034161 0.084853
v -0.045922 -0.034161 0.110865
v 0.000000 -0.034161 0.120000
v 0.045922 -0.034161 0.110865
v 0.084853 -0.034161 0.084853
v 0.110866 -0.034161 0.045922
v 0.120000 -0.034161 -0.000000
v 0.110866 -0.034161 -0.045922
v 0.084853 -0.034161 -0.084853
v 0.045922 -0.034161 -0.110866
vn 0.8660 -0.0000 -0.5000
vn 0.8660 -0.0000 0.5000
vn -0.8660 -0.0000 0.5000
vn -0.0000 -0.0000 -1.0000
vn -0.0000 -0.0000 1.0000
vn -0.8660 -0.0000 -0.5000
vn -0.0000 1.0000 -0.0000
vn -0.9808 -0.0000 -0.1951
vn 0.9808 -0.0000 0.1951
vn -0.9808 -0.0000 0.1951
vn 0.9808 -0.0000 -0.1951
vn -0.8315 -0.0000 0.5556
vn 0.8315 -0.0000 -0.5556
vn -0.5556 -0.0000 0.8315
vn 0.5556 -0.0000 -0.8315
vn -0.1951 -0.0000 0.9808
vn -0.1951 -0.0000 -0.9808
vn 0.1951 -0.0000 -0.9808
vn 0.1951 -0.0000 0.9808
vn -0.5556 -0.0000 -0.8315
vn 0.5556 -0.0000 0.8315
vn -0.8315 -0.0000 -0.5556
vn 0.8315 -0.0000 0.5556
vt 0.000000 0.000000
s 0
f 2/1/1 8/1/1 7/1/1 1/1/1
f 1/1/2 7/1/2 12/1/2 6/1/2
f 5/1/3 11/1/3 10/1/3 4/1/3
f 3/1/4 9/1/4 8/1/4 2/1/4
f 6/1/5 12/1/5 11/1/5 5/1/5
f 4/1/6 10/1/6 9/1/6 3/1/6
f 24/1/7 25/1/7 1/1/7
f 18/1/7 5/1/7 4/1/7
f 1/1/7 25/1/7 26/1/7
f 1/1/7 26/1/7 2/1/7
f 1/1/7 6/1/7 24/1/7
f 16/1/8 32/1/8 33/1/8 17/1/8
f 2/1/7 27/1/7 28/1/7
f 22/1/7 23/1/7 6/1/7
f 22/1/7 6/1/7 21/1/7
f 3/1/7 2/1/7 13/1/7
f 21/1/7 6/1/7 5/1/7
f 24/1/7 6/1/7 23/1/7
f 3/1/7 13/1/7 14/1/7
f 20/1/7 21/1/7 5/1/7
f 3/1/7 14/1/7 15/1/7
f 19/1/7 20/1/7 5/1/7
f 19/1/7 5/1/7 18/1/7
f 4/1/7 3/1/7 16/1/7
f 2/1/7 26/1/7 27/1/7
f 16/1/7 3/1/7 15/1/7
f 18/1/7 4/1/7 17/1/7
f 13/1/7 2/1/7 28/1/7
f 17/1/7 4/1/7 16/1/7
f 24/1/9 40/1/9 41/1/9 25/1/9
f 17/1/10 33/1/10 34/1/10 18/1/10
f 25/1/11 41/1/11 42/1/11 26/1/11
f 18/1/12 34/1/12 35/1/12 19/1/12
f 26/1/13 42/1/13 43/1/13 27/1/13
f 19/1/14 35/1/14 36/1/14 20/1/14
f 27/1/15 43/1/15 44/1/15 28/1/15
f 20/1/16 36/1/16 37/1/16 21/1/16
f 13/1/17 29/1/17 30/1/17 14/1/17
f 28/1/18 44/1/18 29/1/18 13/1/18
f 21/1/19 37/1/19 38/1/19 22/1/19
f 14/1/20 30/1/20 31/1/20 15/1/20
f 22/1/21 38/1/21 39/1/21 23/1/21
f 15/1/22 31/1/22 32/1/22 16/1/22
f 23/1/23 39/1/23 40/1/23 24/1/23
f 8/1/7 9/1/7 10/1/7 11/1/7 12/1/7 7/1/7
