# Blender 3.6.7
# www.blender.org
mtllib tread.mtl
o Tread
v 0.050000 -0.000000 -0.075000
v -0.050000 -0.000000 -0.075000
v 0.040000 -0.000000 -0.125000
v -0.040000 -0.000000 -0.125000
v -0.190000 -0.000000 0.116138
v 0.190000 0.000000 0.116138
v 0.050000 -0.000000 0.075000
v -0.050000 -0.000000 0.075000
v -0.181137 -0.000000 -0.075000
v -0.190000 -0.000000 -0.066137
v 0.190000 0.000000 -0.066137
v 0.181137 0.000000 -0.075000
v -0.181137 -0.000000 0.125000
v 0.181137 0.000000 0.125000
v 0.058863 -0.000000 0.125000
v -0.058863 -0.000000 0.125000
v 0.080000 -0.060000 -0.045000
v -0.080000 -0.060000 -0.045000
v -0.160000 -0.060000 0.045000
v 0.160000 -0.060000 0.045000
v 0.080000 -0.060000 0.045000
v -0.080000 -0.060000 0.045000
v -0.160000 -0.060000 -0.045000
v 0.160000 -0.060000 -0.045000
v -0.040000 0.040000 -0.065000
v 0.040000 0.040000 -0.065000
v 0.040000 0.040000 0.065000
v -0.040000 0.040000 0.065000
v 0.070000 -0.050000 -0.055000
v 0.070000 -0.050000 0.055000
v -0.070000 -0.050000 -0.055000
v -0.070000 -0.050000 0.055000
v -0.170000 -0.050000 0.055000
v 0.170000 -0.050000 0.055000
v -0.170000 -0.050000 -0.055000
v 0.170000 -0.050000 -0.055000
v 0.040000 -0.050000 -0.125000
v -0.040000 -0.050000 -0.125000
v -0.190000 -0.050000 0.116138
v -0.181137 -0.050000 0.125000
v 0.181137 -0.050000 0.125000
v 0.190000 -0.050000 0.116138
v 0.058863 -0.050000 0.125000
v -0.058863 -0.050000 0.125000
v 0.050000 -0.050000 -0.075000
v 0.050000 -0.050000 0.075000
v -0.050000 -0.050000 -0.075000
v -0.050000 -0.050000 0.075000
v -0.180000 -0.050000 0.075000
v 0.180000 -0.050000 0.075000
v -0.190000 -0.050000 -0.066137
v -0.181137 -0.050000 -0.075000
v 0.181137 -0.050000 -0.075000
v 0.190000 -0.050000 -0.066137
vn -0.0000 1.0000 -0.0000
vn -0.0000 0.2425 0.9701
vn -0.0000 -0.0000 1.0000
vn 0.9806 -0.0000 -0.1961
vn -0.0000 -1.0000 -0.0000
vn -0.7071 -0.0000 0.7071
vn -0.9806 -0.0000 -0.1961
vn 0.7071 -0.0000 0.7071
vn -0.9847 -0.0000 0.1745
vn 0.9847 -0.0000 0.1745
vn -0.9701 0.2425 -0.0000
vn 0.9701 0.2425 -0.0000
vn -0.0000 0.2425 -0.9701
vn -0.0000 -0.0000 -1.0000
vn -1.0000 -0.0000 -0.0000
vn -0.7071 -0.0000 -0.7071
vn 0.7071 -0.0000 -0.7071
vn 1.0000 -0.0000 -0.0000
vn -0.7071 -0.7071 -0.0000
vn 0.7071 -0.7071 -0.0000
vn -0.0000 -0.7071 0.7071
vn -0.0000 -0.7071 -0.7071
vt 1.000000 1.000000
vt 1.000000 0.000000
vt 0.000000 0.000000
vt 1.000000 0.059084
vt 0.000000 1.000000
vt 0.000000 0.059084
vt 1.000000 0.198049
vt 1.000000 0.184660
vt 1.000000 0.798697
vt 1.000000 0.799574
vt 1.000000 0.133333
vt 1.000000 0.133333
vt 1.000000 0.064424
vt 1.000000 0.064334
vt 0.000000 0.200000
vt 0.000000 0.200000
vt 0.000000 0.800000
vt 0.000000 0.800000
vt 1.000000 0.064334
vt 1.000000 0.094910
vt 0.000000 0.133333
vt 0.000000 0.133333
vt 0.000000 0.064334
vt 0.000000 0.064424
vt 1.000000 0.866667
vt 1.000000 0.933333
vt 1.000000 0.064424
vt 0.000000 0.114312
vt 0.000000 0.085732
vt 0.000000 0.055156
vt 1.000000 0.866667
vt 1.000000 0.933333
vt 1.000000 1.000000
vt 0.000000 1.000000
vt 0.911094 0.000000
vt 0.088906 0.000000
vt 0.117824 0.000000
vt 0.882176 0.000000
vt 1.000000 0.114313
vt 1.000000 0.085732
vt 1.000000 1.000320
vt 0.082653 0.064424
vt 0.917347 0.064424
vt 1.100000 0.933333
vt -0.100000 0.933333
vt 0.000000 0.866667
vt 0.000000 1.000320
vt 0.000000 0.085732
vt 0.000000 0.866667
vt 0.000000 0.064424
vt 0.000000 0.933333
vt 1.000000 0.059084
s 0
f 7/1/1 15/1/1 14/1/1 6/1/1
f 1/2/1 3/2/1 4/3/1 2/3/1
f 1/2/1 7/1/1 6/1/1 11/4/1 12/2/1
f 8/5/2 7/1/2 27/1/2 28/5/2
f 5/5/1 13/5/1 16/5/1 8/5/1
f 10/6/1 5/5/1 8/5/1 2/3/1 9/3/1
f 14/1/3 15/1/3 43/1/3 41/1/3
f 3/2/4 1/2/4 45/2/4 37/2/4
f 17/7/5 24/8/5 20/9/5 21/10/5
f 36/11/5 29/12/5 45/13/5 53/14/5
f 13/5/6 5/5/6 39/5/6 40/5/6
f 23/15/5 18/16/5 22/17/5 19/18/5
f 36/11/5 53/19/5 54/20/5
f 2/3/7 4/3/7 38/3/7 47/3/7
f 6/1/8 14/1/8 41/1/8 42/1/8
f 31/21/5 35/22/5 52/23/5 47/24/5
f 16/5/3 13/5/3 40/5/3 44/5/3
f 29/12/5 30/25/5 46/26/5 45/27/5
f 15/1/9 7/1/9 46/1/9 43/1/9
f 35/28/5 51/29/5 52/30/5
f 30/25/5 34/31/5 50/1/5 46/32/5
f 46/1/5 50/1/5 42/33/5 41/33/5 43/1/5
f 49/5/5 48/5/5 44/34/5 40/5/5 39/5/5
f 45/35/5 47/36/5 38/37/5 37/38/5
f 34/31/5 36/39/5 54/40/5 50/41/5
f 8/5/10 16/5/10 44/5/10 48/5/10
f 47/42/5 45/43/5 46/44/5 48/45/5
f 25/3/1 28/5/1 27/1/1 26/2/1
f 2/3/11 8/5/11 28/5/11 25/3/11
f 7/1/12 1/2/12 26/2/12 27/1/12
f 1/2/13 2/3/13 25/3/13 26/2/13
f 7/1/3 8/5/3 48/5/3 46/1/3
f 9/3/14 2/3/14 47/3/14 52/3/14
f 35/28/5 33/46/5 49/47/5 51/48/5
f 32/49/5 31/21/5 47/50/5 48/51/5
f 5/5/15 10/6/15 51/6/15 39/5/15
f 10/6/16 9/3/16 52/3/16 51/6/16
f 33/46/5 32/49/5 48/51/5 49/5/5
f 1/2/14 12/2/14 53/2/14 45/2/14
f 12/2/17 11/4/17 54/4/17 53/2/17
f 11/4/18 6/1/18 42/1/18 54/52/18
f 17/7/19 21/10/19 30/25/19 29/12/19
f 22/17/20 18/16/20 31/21/20 32/49/20
f 19/18/21 22/17/21 32/49/21 33/46/21
f 21/10/21 20/9/21 34/31/21 30/25/21
f 18/16/22 23/15/22 35/22/22 31/21/22
f 24/8/22 17/7/22 29/12/22 36/39/22
f 23/15/19 19/18/19 33/46/19 35/22/19
f 20/9/20 24/8/20 36/39/20 34/31/20
f 39/5/5 51/48/5 49/47/5
f 54/52/5 42/1/5 50/41/5
f 4/3/14 3/2/14 37/2/14 38/3/14
